# xmcd CD database file
#
# Track frame offsets:
#	150
#	13385
#	28290
#	42142
#	55172
#	69470
#	83830
#	100730
#	115810
#	133792
#	149210
#	160957
#	177302
#	193295
#	207122
#	225767
#	243355
#	258395
#	275002
#	290337
#	301257
#	311852
#
# Disc length: 4447 seconds
#
# Revision: 2
# Processed by: cddbd v1.5.2PL0 Copyright (c) Steve Scherf et al.
# Submitted via: CDex 1.51
#
DISCID=48115d16
DTITLE=Various Artist - The Best Of Country Music, Vol. 2
DYEAR=1987
DGENRE=Country
TTITLE0=Merle Haggard - Carryin' Fire
TTITLE1=Rosanne Cash - I Don't Know Why You Don't Want Me
TTITLE2=Sweethearts Of The Rodeo - Gotta Get Away
TTITLE3=Moe Bandy and Joe Stampley - Where's The Dress
TTITLE4=Willie Nelson - Heart Of Gold
TTITLE5=Geroge Jones - If Drinkin' Don't Kill Me
TTITLE6=Ricky Skaggs - Waitin' For The Sun To Shine
TTITLE7=The Charlie Daniels Band - In America
TTITLE8=Willie Nelson - Hello Love Goodbye
TTITLE9=Dan Fogelberg - The Outlaw
TTITLE10=Ronnie McDowell - In A New York Minute
TTITLE11=Exile - She's A Miracle
TTITLE12=Ricky Skaggs - New Star Shinning
TTITLE13=Johnny Cash and Waylon Jennings - Even Cowgirls Get The Blues
TTITLE14=Janie Frickie - When A Woman Cries
TTITLE15=David Allan Coe - Son Of The South
TTITLE16=George Jones - Wine Colored Roses
TTITLE17=Mark Gray and Tammy Wynette - Sometimes When We Touch
TTITLE18=Mickey Gilley - Your Memory Ain't What It Used To Be
TTITLE19=Merle Haggard - The Okie From Muskogee's Comin' Home
TTITLE20=Willie Nelson - Blue Eyes Crying In The Train
TTITLE21=Merle Haggard and Willie Nelson - Pancho And Letty
EXTD=(c)1987 Sony Music France\nCBS 451030-2\nupc 5099745103027 YEAR: 1987
EXTT0=
EXTT1=
EXTT2=
EXTT3=
EXTT4=
EXTT5=
EXTT6=
EXTT7=
EXTT8=
EXTT9=
EXTT10=
EXTT11=
EXTT12=
EXTT13=
EXTT14=
EXTT15=
EXTT16=
EXTT17=
EXTT18=
EXTT19=
EXTT20=
EXTT21=
PLAYORDER=
